<svg version="1.0" xmlns="http://www.w3.org/2000/svg"
  width="512" height="512" viewBox="0 0 512 512"
  preserveAspectRatio="xMidYMid meet">
  <g transform="translate(0.000000,512.000000) scale(0.100000,-0.100000)"
    fill="#595959" stroke="none">
    <path d="M684 4540 c-53 -27 -189 -167 -210 -216 -21 -50 -21 -142 1 -185 9
      -19 331 -349 716 -734 535 -537 703 -710 718 -745 27 -59 27 -141 0 -200 -15
      -35 -183 -208 -718 -745 -385 -385 -707 -715 -716 -734 -22 -43 -22 -135 -1
      -185 21 -51 158 -190 212 -215 53 -25 139 -28 192 -6 47 20 1853 1820 1885
      1880 15 29 21 58 21 105 0 47 -6 76 -21 105 -32 60 -1838 1860 -1885 1880 -54
      22 -144 19 -194 -5z"/>
    <path d="M2565 4541 c-22 -10 -78 -58 -126 -107 -67 -70 -88 -99 -98 -137 -16
      -54 -9 -121 15 -170 9 -17 334 -351 723 -742 754 -756 731 -730 731 -825 0
      -95 23 -69 -731 -825 -389 -390 -714 -725 -723 -742 -24 -49 -31 -116 -15
      -170 10 -38 31 -67 98 -137 48 -49 104 -97 126 -107 59 -27 140 -25 201 6 67
      33 1841 1807 1874 1874 30 59 30 143 0 202 -33 67 -1807 1841 -1874 1874 -61
      31 -142 33 -201 6z"/>
  </g>
</svg>